<?xml version="1.0" encoding="utf-8"?>
<svg xmlns="http://www.w3.org/2000/svg" viewBox="19.853 310.999 455.663 129.02" style="">
  <svg y="435.69100158691407" viewBox="1.1299999952316284 -0.4300000071525574 370.4599914550781 14.220000267028809" x="102.27002075195313" height="14.220000267028809" width="370.4599914550781" xmlns="http://www.w3.org/2000/svg" style="overflow: visible;" transform="matrix(1, 0, 0, 1, 99.22472381591797, 394.3295593261719)">
    <g fill="#000" fill-opacity="0.7" style="">
      <path d="M -40.87 -36.62 L -39.35 -36.62 C -39.363 -35.867 -39.377 -35.113 -39.39 -34.36 C -39.403 -33.613 -39.417 -32.857 -39.43 -32.09 L -40.87 -32.09 L -40.87 -36.62 Z M -38.44 -36.62 L -36.92 -36.62 C -36.933 -35.867 -36.947 -35.113 -36.96 -34.36 C -36.973 -33.613 -36.987 -32.857 -37 -32.09 L -38.44 -32.09 L -38.44 -36.62 Z M -30.43 -36.51 L -26.95 -36.51 C -26.003 -36.51 -25.193 -36.353 -24.52 -36.04 C -23.847 -35.72 -23.327 -35.26 -22.96 -34.66 C -22.6 -34.06 -22.42 -33.333 -22.42 -32.48 C -22.42 -31.967 -22.497 -31.46 -22.65 -30.96 C -22.803 -30.46 -23.053 -30.01 -23.4 -29.61 C -23.74 -29.21 -24.187 -28.89 -24.74 -28.65 C -25.293 -28.41 -25.963 -28.29 -26.75 -28.29 L -28.68 -28.29 L -28.68 -23.5 L -30.43 -23.5 L -30.43 -36.51 Z M -28.68 -29.96 L -26.77 -29.96 C -26.257 -29.96 -25.83 -30.043 -25.49 -30.21 C -25.157 -30.383 -24.893 -30.597 -24.7 -30.85 C -24.507 -31.11 -24.37 -31.383 -24.29 -31.67 C -24.203 -31.957 -24.16 -32.217 -24.16 -32.45 C -24.16 -32.71 -24.203 -32.98 -24.29 -33.26 C -24.37 -33.547 -24.51 -33.807 -24.71 -34.04 C -24.91 -34.273 -25.167 -34.467 -25.48 -34.62 C -25.8 -34.767 -26.193 -34.84 -26.66 -34.84 L -28.68 -34.84 L -28.68 -29.96 Z M -13.07 -23.32 C -13.923 -23.32 -14.657 -23.49 -15.27 -23.83 C -15.883 -24.177 -16.353 -24.647 -16.68 -25.24 C -17.013 -25.833 -17.18 -26.513 -17.18 -27.28 C -17.18 -28.013 -16.993 -28.68 -16.62 -29.28 C -16.247 -29.88 -15.75 -30.36 -15.13 -30.72 C -14.503 -31.08 -13.807 -31.26 -13.04 -31.26 C -12.053 -31.26 -11.237 -30.97 -10.59 -30.39 C -9.943 -29.817 -9.507 -29.027 -9.28 -28.02 L -15.41 -25.86 L -15.81 -26.85 L -10.77 -28.68 L -11.13 -28.45 C -11.277 -28.843 -11.517 -29.187 -11.85 -29.48 C -12.183 -29.78 -12.62 -29.93 -13.16 -29.93 C -13.62 -29.93 -14.03 -29.817 -14.39 -29.59 C -14.75 -29.37 -15.03 -29.067 -15.23 -28.68 C -15.437 -28.3 -15.54 -27.863 -15.54 -27.37 C -15.54 -26.857 -15.433 -26.403 -15.22 -26.01 C -15 -25.623 -14.7 -25.317 -14.32 -25.09 C -13.947 -24.87 -13.52 -24.76 -13.04 -24.76 C -12.713 -24.76 -12.397 -24.82 -12.09 -24.94 C -11.783 -25.06 -11.5 -25.217 -11.24 -25.41 L -10.46 -24.17 C -10.833 -23.917 -11.25 -23.71 -11.71 -23.55 C -12.177 -23.397 -12.63 -23.32 -13.07 -23.32 Z M -3.57 -30.95 L -2.08 -30.95 L -1.91 -28.79 L -2 -29.08 C -1.813 -29.533 -1.537 -29.92 -1.17 -30.24 C -0.803 -30.56 -0.42 -30.807 -0.02 -30.98 C 0.387 -31.153 0.74 -31.24 1.04 -31.24 L 0.95 -29.58 C 0.383 -29.62 -0.113 -29.513 -0.54 -29.26 C -0.967 -29.007 -1.303 -28.67 -1.55 -28.25 C -1.79 -27.83 -1.91 -27.38 -1.91 -26.9 L -1.91 -23.5 L -3.57 -23.5 L -3.57 -30.95 Z M 8.89 -23.36 C 8.357 -23.36 7.843 -23.45 7.35 -23.63 C 6.85 -23.817 6.437 -24.097 6.11 -24.47 L 6.82 -25.44 C 7.127 -25.14 7.447 -24.917 7.78 -24.77 C 8.107 -24.617 8.433 -24.54 8.76 -24.54 C 9 -24.54 9.223 -24.57 9.43 -24.63 C 9.63 -24.69 9.793 -24.79 9.92 -24.93 C 10.047 -25.07 10.11 -25.26 10.11 -25.5 C 10.11 -25.76 10.023 -25.97 9.85 -26.13 C 9.677 -26.283 9.453 -26.41 9.18 -26.51 C 8.913 -26.603 8.63 -26.693 8.33 -26.78 C 7.717 -26.98 7.247 -27.26 6.92 -27.62 C 6.6 -27.98 6.44 -28.42 6.44 -28.94 C 6.44 -29.333 6.54 -29.7 6.74 -30.04 C 6.933 -30.387 7.227 -30.667 7.62 -30.88 C 8.007 -31.093 8.49 -31.2 9.07 -31.2 C 9.583 -31.2 10.043 -31.137 10.45 -31.01 C 10.857 -30.89 11.24 -30.683 11.6 -30.39 L 10.94 -29.35 C 10.72 -29.577 10.46 -29.743 10.16 -29.85 C 9.86 -29.963 9.59 -30.023 9.35 -30.03 C 9.15 -30.043 8.957 -30.013 8.77 -29.94 C 8.583 -29.873 8.43 -29.773 8.31 -29.64 C 8.19 -29.507 8.13 -29.35 8.13 -29.17 C 8.13 -28.917 8.213 -28.713 8.38 -28.56 C 8.547 -28.4 8.767 -28.277 9.04 -28.19 C 9.307 -28.097 9.573 -28.003 9.84 -27.91 C 10.213 -27.803 10.543 -27.66 10.83 -27.48 C 11.117 -27.3 11.347 -27.077 11.52 -26.81 C 11.693 -26.55 11.78 -26.22 11.78 -25.82 C 11.78 -25.38 11.677 -24.97 11.47 -24.59 C 11.257 -24.21 10.94 -23.91 10.52 -23.69 C 10.093 -23.47 9.55 -23.36 8.89 -23.36 Z M 17.08 -27.3 C 17.08 -28.04 17.257 -28.71 17.61 -29.31 C 17.963 -29.91 18.45 -30.387 19.07 -30.74 C 19.697 -31.087 20.407 -31.26 21.2 -31.26 C 22.013 -31.26 22.727 -31.087 23.34 -30.74 C 23.953 -30.387 24.427 -29.91 24.76 -29.31 C 25.1 -28.71 25.27 -28.04 25.27 -27.3 C 25.27 -26.553 25.1 -25.877 24.76 -25.27 C 24.427 -24.663 23.95 -24.187 23.33 -23.84 C 22.71 -23.493 21.993 -23.32 21.18 -23.32 C 20.387 -23.32 19.683 -23.483 19.07 -23.81 C 18.45 -24.143 17.963 -24.607 17.61 -25.2 C 17.257 -25.793 17.08 -26.493 17.08 -27.3 Z M 18.75 -27.28 C 18.75 -26.8 18.857 -26.363 19.07 -25.97 C 19.29 -25.583 19.583 -25.277 19.95 -25.05 C 20.317 -24.823 20.72 -24.71 21.16 -24.71 C 21.627 -24.71 22.043 -24.823 22.41 -25.05 C 22.777 -25.277 23.063 -25.583 23.27 -25.97 C 23.47 -26.363 23.57 -26.8 23.57 -27.28 C 23.57 -27.76 23.47 -28.193 23.27 -28.58 C 23.063 -28.973 22.777 -29.287 22.41 -29.52 C 22.043 -29.753 21.627 -29.87 21.16 -29.87 C 20.707 -29.87 20.297 -29.75 19.93 -29.51 C 19.563 -29.27 19.277 -28.957 19.07 -28.57 C 18.857 -28.177 18.75 -27.747 18.75 -27.28 Z M 31.13 -30.95 L 32.63 -30.95 L 32.77 -29.13 L 32.7 -29.42 C 32.94 -29.973 33.33 -30.413 33.87 -30.74 C 34.41 -31.073 35.033 -31.24 35.74 -31.24 C 36.447 -31.24 37.027 -31.033 37.48 -30.62 C 37.927 -30.207 38.157 -29.67 38.17 -29.01 L 38.17 -23.5 L 36.48 -23.5 L 36.48 -28.41 C 36.467 -28.823 36.35 -29.157 36.13 -29.41 C 35.91 -29.67 35.563 -29.8 35.09 -29.8 C 34.663 -29.8 34.273 -29.68 33.92 -29.44 C 33.573 -29.2 33.303 -28.87 33.11 -28.45 C 32.91 -28.03 32.81 -27.543 32.81 -26.99 L 32.81 -23.5 L 31.13 -23.5 L 31.13 -30.95 Z M 47.78 -23.32 C 47.087 -23.32 46.453 -23.47 45.88 -23.77 C 45.313 -24.07 44.863 -24.51 44.53 -25.09 C 44.203 -25.677 44.04 -26.39 44.04 -27.23 C 44.04 -28.057 44.213 -28.773 44.56 -29.38 C 44.907 -29.987 45.373 -30.45 45.96 -30.77 C 46.54 -31.097 47.177 -31.26 47.87 -31.26 C 48.57 -31.26 49.16 -31.1 49.64 -30.78 C 50.12 -30.46 50.487 -30.087 50.74 -29.66 L 50.63 -29.37 L 50.79 -30.95 L 52.34 -30.95 L 52.34 -23.5 L 50.66 -23.5 L 50.66 -25.44 L 50.84 -25.01 C 50.793 -24.89 50.69 -24.737 50.53 -24.55 C 50.37 -24.363 50.153 -24.177 49.88 -23.99 C 49.613 -23.797 49.303 -23.637 48.95 -23.51 C 48.603 -23.383 48.213 -23.32 47.78 -23.32 Z M 48.23 -24.71 C 48.65 -24.71 49.03 -24.787 49.37 -24.94 C 49.703 -25.093 49.98 -25.313 50.2 -25.6 C 50.427 -25.88 50.58 -26.217 50.66 -26.61 L 50.66 -28.07 C 50.567 -28.43 50.4 -28.747 50.16 -29.02 C 49.92 -29.287 49.633 -29.497 49.3 -29.65 C 48.96 -29.797 48.587 -29.87 48.18 -29.87 C 47.733 -29.87 47.327 -29.763 46.96 -29.55 C 46.587 -29.33 46.287 -29.03 46.06 -28.65 C 45.84 -28.263 45.73 -27.813 45.73 -27.3 C 45.73 -26.82 45.843 -26.38 46.07 -25.98 C 46.303 -25.587 46.61 -25.277 46.99 -25.05 C 47.377 -24.823 47.79 -24.71 48.23 -24.71 Z M 58.84 -23.5 L 58.84 -37.43 L 60.51 -37.43 L 60.51 -23.5 L 58.84 -23.5 Z M 67.01 -23.5 L 67.01 -30.95 L 68.68 -30.95 L 68.68 -23.5 L 67.01 -23.5 Z M 66.88 -33.65 C 66.88 -33.917 66.987 -34.14 67.2 -34.32 C 67.407 -34.5 67.637 -34.59 67.89 -34.59 C 68.143 -34.59 68.367 -34.5 68.56 -34.32 C 68.76 -34.14 68.86 -33.917 68.86 -33.65 C 68.86 -33.377 68.76 -33.153 68.56 -32.98 C 68.367 -32.807 68.143 -32.72 67.89 -32.72 C 67.637 -32.72 67.407 -32.81 67.2 -32.99 C 66.987 -33.17 66.88 -33.39 66.88 -33.65 Z M 79.07 -29.58 L 75.86 -29.58 C 75.493 -29.58 75.177 -29.697 74.91 -29.93 C 74.643 -30.157 74.51 -30.497 74.51 -30.95 L 74.51 -31.65 L 75.79 -31.65 L 75.79 -31.42 C 75.79 -31.227 75.84 -31.1 75.94 -31.04 C 76.033 -30.98 76.187 -30.95 76.4 -30.95 L 81.17 -30.95 L 76.71 -24.53 L 76.39 -24.89 L 81.12 -24.89 L 81.12 -23.5 L 74.23 -23.5 L 78.78 -30.05 L 79.07 -29.58 Z M 90.57 -23.32 C 89.717 -23.32 88.983 -23.49 88.37 -23.83 C 87.763 -24.177 87.293 -24.647 86.96 -25.24 C 86.633 -25.833 86.47 -26.513 86.47 -27.28 C 86.47 -28.013 86.653 -28.68 87.02 -29.28 C 87.393 -29.88 87.893 -30.36 88.52 -30.72 C 89.14 -31.08 89.837 -31.26 90.61 -31.26 C 91.59 -31.26 92.403 -30.97 93.05 -30.39 C 93.703 -29.817 94.143 -29.027 94.37 -28.02 L 88.23 -25.86 L 87.83 -26.85 L 92.87 -28.68 L 92.51 -28.45 C 92.37 -28.843 92.13 -29.187 91.79 -29.48 C 91.457 -29.78 91.02 -29.93 90.48 -29.93 C 90.027 -29.93 89.62 -29.817 89.26 -29.59 C 88.9 -29.37 88.617 -29.067 88.41 -28.68 C 88.203 -28.3 88.1 -27.863 88.1 -27.37 C 88.1 -26.857 88.21 -26.403 88.43 -26.01 C 88.643 -25.623 88.94 -25.317 89.32 -25.09 C 89.7 -24.87 90.13 -24.76 90.61 -24.76 C 90.93 -24.76 91.243 -24.82 91.55 -24.94 C 91.857 -25.06 92.143 -25.217 92.41 -25.41 L 93.18 -24.17 C 92.807 -23.917 92.39 -23.71 91.93 -23.55 C 91.47 -23.397 91.017 -23.32 90.57 -23.32 Z M 103.1 -23.32 C 102.413 -23.32 101.79 -23.483 101.23 -23.81 C 100.677 -24.143 100.237 -24.613 99.91 -25.22 C 99.59 -25.827 99.43 -26.527 99.43 -27.32 C 99.43 -28.147 99.6 -28.853 99.94 -29.44 C 100.28 -30.027 100.743 -30.477 101.33 -30.79 C 101.923 -31.103 102.583 -31.26 103.31 -31.26 C 103.903 -31.26 104.467 -31.133 105 -30.88 C 105.533 -30.627 105.95 -30.28 106.25 -29.84 L 106.18 -29.24 L 106.18 -37.43 L 107.83 -37.43 L 107.83 -23.5 L 106.16 -23.5 L 106.16 -25.35 L 106.34 -24.89 C 105.993 -24.43 105.543 -24.053 104.99 -23.76 C 104.437 -23.467 103.807 -23.32 103.1 -23.32 Z M 103.62 -24.74 C 104.067 -24.74 104.463 -24.82 104.81 -24.98 C 105.157 -25.147 105.443 -25.373 105.67 -25.66 C 105.897 -25.947 106.06 -26.29 106.16 -26.69 L 106.16 -28.09 C 106.06 -28.45 105.887 -28.763 105.64 -29.03 C 105.4 -29.303 105.107 -29.52 104.76 -29.68 C 104.42 -29.847 104.04 -29.93 103.62 -29.93 C 103.167 -29.93 102.75 -29.817 102.37 -29.59 C 101.99 -29.37 101.687 -29.067 101.46 -28.68 C 101.233 -28.3 101.12 -27.857 101.12 -27.35 C 101.12 -26.857 101.233 -26.417 101.46 -26.03 C 101.687 -25.637 101.993 -25.323 102.38 -25.09 C 102.76 -24.857 103.173 -24.74 103.62 -24.74 Z M 124.05 -23.5 L 124.05 -36.51 L 132.51 -36.51 L 132.51 -34.84 L 125.8 -34.84 L 125.8 -30.88 L 131.79 -30.88 L 131.79 -29.21 L 125.8 -29.21 L 125.8 -25.17 L 132.76 -25.17 L 132.76 -23.5 L 124.05 -23.5 Z M 142 -23.32 C 141.313 -23.32 140.69 -23.483 140.13 -23.81 C 139.577 -24.143 139.137 -24.613 138.81 -25.22 C 138.483 -25.827 138.32 -26.527 138.32 -27.32 C 138.32 -28.147 138.493 -28.853 138.84 -29.44 C 139.18 -30.027 139.643 -30.477 140.23 -30.79 C 140.817 -31.103 141.477 -31.26 142.21 -31.26 C 142.797 -31.26 143.357 -31.133 143.89 -30.88 C 144.43 -30.627 144.85 -30.28 145.15 -29.84 L 145.07 -29.24 L 145.07 -37.43 L 146.73 -37.43 L 146.73 -23.5 L 145.06 -23.5 L 145.06 -25.35 L 145.24 -24.89 C 144.887 -24.43 144.437 -24.053 143.89 -23.76 C 143.337 -23.467 142.707 -23.32 142 -23.32 Z M 142.52 -24.74 C 142.96 -24.74 143.357 -24.82 143.71 -24.98 C 144.057 -25.147 144.343 -25.373 144.57 -25.66 C 144.797 -25.947 144.96 -26.29 145.06 -26.69 L 145.06 -28.09 C 144.96 -28.45 144.787 -28.763 144.54 -29.03 C 144.293 -29.303 144 -29.52 143.66 -29.68 C 143.32 -29.847 142.94 -29.93 142.52 -29.93 C 142.06 -29.93 141.643 -29.817 141.27 -29.59 C 140.89 -29.37 140.587 -29.067 140.36 -28.68 C 140.133 -28.3 140.02 -27.857 140.02 -27.35 C 140.02 -26.857 140.133 -26.417 140.36 -26.03 C 140.587 -25.637 140.893 -25.323 141.28 -25.09 C 141.66 -24.857 142.073 -24.74 142.52 -24.74 Z M 155.6 -23.21 C 154.933 -23.21 154.38 -23.417 153.94 -23.83 C 153.5 -24.243 153.27 -24.78 153.25 -25.44 L 153.25 -30.95 L 154.92 -30.95 L 154.92 -26.04 C 154.947 -25.633 155.063 -25.303 155.27 -25.05 C 155.483 -24.797 155.817 -24.663 156.27 -24.65 C 156.69 -24.65 157.063 -24.773 157.39 -25.02 C 157.723 -25.267 157.993 -25.603 158.2 -26.03 C 158.4 -26.457 158.5 -26.94 158.5 -27.48 L 158.5 -30.95 L 160.18 -30.95 L 160.18 -23.5 L 158.65 -23.5 L 158.5 -25.34 L 158.59 -25.01 C 158.45 -24.663 158.23 -24.353 157.93 -24.08 C 157.637 -23.813 157.293 -23.603 156.9 -23.45 C 156.507 -23.29 156.073 -23.21 155.6 -23.21 Z M 171.86 -25.25 L 172.72 -24.18 C 172.387 -23.92 171.987 -23.71 171.52 -23.55 C 171.047 -23.397 170.577 -23.32 170.11 -23.32 C 169.297 -23.32 168.583 -23.483 167.97 -23.81 C 167.357 -24.13 166.88 -24.58 166.54 -25.16 C 166.2 -25.747 166.03 -26.437 166.03 -27.23 C 166.03 -28.017 166.21 -28.707 166.57 -29.3 C 166.937 -29.887 167.417 -30.337 168.01 -30.65 C 168.61 -30.97 169.25 -31.13 169.93 -31.13 C 170.53 -31.13 171.067 -31.047 171.54 -30.88 C 172.013 -30.713 172.42 -30.487 172.76 -30.2 L 171.93 -29.12 C 171.717 -29.287 171.453 -29.437 171.14 -29.57 C 170.827 -29.697 170.473 -29.76 170.08 -29.76 C 169.647 -29.76 169.247 -29.65 168.88 -29.43 C 168.513 -29.21 168.223 -28.907 168.01 -28.52 C 167.803 -28.14 167.7 -27.71 167.7 -27.23 C 167.7 -26.77 167.807 -26.347 168.02 -25.96 C 168.24 -25.567 168.54 -25.26 168.92 -25.04 C 169.307 -24.82 169.747 -24.71 170.24 -24.71 C 170.56 -24.71 170.857 -24.757 171.13 -24.85 C 171.397 -24.943 171.64 -25.077 171.86 -25.25 Z M 181.58 -23.32 C 180.88 -23.32 180.247 -23.47 179.68 -23.77 C 179.107 -24.07 178.657 -24.51 178.33 -25.09 C 177.997 -25.677 177.83 -26.39 177.83 -27.23 C 177.83 -28.057 178.007 -28.773 178.36 -29.38 C 178.707 -29.987 179.17 -30.45 179.75 -30.77 C 180.33 -31.097 180.97 -31.26 181.67 -31.26 C 182.363 -31.26 182.95 -31.1 183.43 -30.78 C 183.91 -30.46 184.277 -30.087 184.53 -29.66 L 184.42 -29.37 L 184.58 -30.95 L 186.13 -30.95 L 186.13 -23.5 L 184.46 -23.5 L 184.46 -25.44 L 184.64 -25.01 C 184.593 -24.89 184.487 -24.737 184.32 -24.55 C 184.16 -24.363 183.943 -24.177 183.67 -23.99 C 183.403 -23.797 183.097 -23.637 182.75 -23.51 C 182.403 -23.383 182.013 -23.32 181.58 -23.32 Z M 182.03 -24.71 C 182.45 -24.71 182.827 -24.787 183.16 -24.94 C 183.5 -25.093 183.78 -25.313 184 -25.6 C 184.22 -25.88 184.373 -26.217 184.46 -26.61 L 184.46 -28.07 C 184.36 -28.43 184.19 -28.747 183.95 -29.02 C 183.71 -29.287 183.423 -29.497 183.09 -29.65 C 182.757 -29.797 182.383 -29.87 181.97 -29.87 C 181.53 -29.87 181.123 -29.763 180.75 -29.55 C 180.377 -29.33 180.08 -29.03 179.86 -28.65 C 179.64 -28.263 179.53 -27.813 179.53 -27.3 C 179.53 -26.82 179.643 -26.38 179.87 -25.98 C 180.097 -25.587 180.403 -25.277 180.79 -25.05 C 181.17 -24.823 181.583 -24.71 182.03 -24.71 Z M 193.35 -30.92 L 193.35 -34.23 L 195.02 -34.23 L 195.02 -30.92 L 197.08 -30.92 L 197.08 -29.6 L 195.02 -29.6 L 195.02 -23.5 L 193.35 -23.5 L 193.35 -29.6 L 191.98 -29.6 L 191.98 -30.92 L 193.35 -30.92 Z M 202.69 -23.5 L 202.69 -30.95 L 204.37 -30.95 L 204.37 -23.5 L 202.69 -23.5 Z M 202.57 -33.65 C 202.57 -33.917 202.673 -34.14 202.88 -34.32 C 203.093 -34.5 203.323 -34.59 203.57 -34.59 C 203.823 -34.59 204.05 -34.5 204.25 -34.32 C 204.45 -34.14 204.55 -33.917 204.55 -33.65 C 204.55 -33.377 204.45 -33.153 204.25 -32.98 C 204.05 -32.807 203.823 -32.72 203.57 -32.72 C 203.323 -32.72 203.093 -32.81 202.88 -32.99 C 202.673 -33.17 202.57 -33.39 202.57 -33.65 Z M 210.22 -27.3 C 210.22 -28.04 210.397 -28.71 210.75 -29.31 C 211.103 -29.91 211.59 -30.387 212.21 -30.74 C 212.837 -31.087 213.547 -31.26 214.34 -31.26 C 215.153 -31.26 215.867 -31.087 216.48 -30.74 C 217.093 -30.387 217.567 -29.91 217.9 -29.31 C 218.24 -28.71 218.41 -28.04 218.41 -27.3 C 218.41 -26.553 218.24 -25.877 217.9 -25.27 C 217.567 -24.663 217.09 -24.187 216.47 -23.84 C 215.85 -23.493 215.133 -23.32 214.32 -23.32 C 213.527 -23.32 212.82 -23.483 212.2 -23.81 C 211.587 -24.143 211.103 -24.607 210.75 -25.2 C 210.397 -25.793 210.22 -26.493 210.22 -27.3 Z M 211.89 -27.28 C 211.89 -26.8 211.997 -26.363 212.21 -25.97 C 212.43 -25.583 212.723 -25.277 213.09 -25.05 C 213.457 -24.823 213.86 -24.71 214.3 -24.71 C 214.767 -24.71 215.183 -24.823 215.55 -25.05 C 215.917 -25.277 216.203 -25.583 216.41 -25.97 C 216.61 -26.363 216.71 -26.8 216.71 -27.28 C 216.71 -27.76 216.61 -28.193 216.41 -28.58 C 216.203 -28.973 215.917 -29.287 215.55 -29.52 C 215.183 -29.753 214.767 -29.87 214.3 -29.87 C 213.847 -29.87 213.437 -29.75 213.07 -29.51 C 212.703 -29.27 212.413 -28.957 212.2 -28.57 C 211.993 -28.177 211.89 -27.747 211.89 -27.28 Z M 224.27 -30.95 L 225.77 -30.95 L 225.91 -29.13 L 225.84 -29.42 C 226.08 -29.973 226.47 -30.413 227.01 -30.74 C 227.55 -31.073 228.173 -31.24 228.88 -31.24 C 229.587 -31.24 230.167 -31.033 230.62 -30.62 C 231.067 -30.207 231.297 -29.67 231.31 -29.01 L 231.31 -23.5 L 229.62 -23.5 L 229.62 -28.41 C 229.607 -28.823 229.49 -29.157 229.27 -29.41 C 229.05 -29.67 228.703 -29.8 228.23 -29.8 C 227.803 -29.8 227.413 -29.68 227.06 -29.44 C 226.713 -29.2 226.44 -28.87 226.24 -28.45 C 226.047 -28.03 225.95 -27.543 225.95 -26.99 L 225.95 -23.5 L 224.27 -23.5 L 224.27 -30.95 Z M 247.53 -23.5 L 247.53 -36.51 L 255.25 -36.51 L 255.25 -34.84 L 249.28 -34.84 L 249.28 -30.68 L 254.51 -30.68 L 254.51 -29.03 L 249.28 -29.03 L 249.28 -23.5 L 247.53 -23.5 Z M 259.7 -27.3 C 259.7 -28.04 259.877 -28.71 260.23 -29.31 C 260.583 -29.91 261.073 -30.387 261.7 -30.74 C 262.32 -31.087 263.027 -31.26 263.82 -31.26 C 264.633 -31.26 265.347 -31.087 265.96 -30.74 C 266.573 -30.387 267.047 -29.91 267.38 -29.31 C 267.72 -28.71 267.89 -28.04 267.89 -27.3 C 267.89 -26.553 267.72 -25.877 267.38 -25.27 C 267.047 -24.663 266.57 -24.187 265.95 -23.84 C 265.337 -23.493 264.62 -23.32 263.8 -23.32 C 263.007 -23.32 262.303 -23.483 261.69 -23.81 C 261.07 -24.143 260.583 -24.607 260.23 -25.2 C 259.877 -25.793 259.7 -26.493 259.7 -27.3 Z M 261.37 -27.28 C 261.37 -26.8 261.48 -26.363 261.7 -25.97 C 261.913 -25.583 262.203 -25.277 262.57 -25.05 C 262.937 -24.823 263.34 -24.71 263.78 -24.71 C 264.253 -24.71 264.67 -24.823 265.03 -25.05 C 265.397 -25.277 265.683 -25.583 265.89 -25.97 C 266.097 -26.363 266.2 -26.8 266.2 -27.28 C 266.2 -27.76 266.097 -28.193 265.89 -28.58 C 265.683 -28.973 265.397 -29.287 265.03 -29.52 C 264.67 -29.753 264.253 -29.87 263.78 -29.87 C 263.327 -29.87 262.917 -29.75 262.55 -29.51 C 262.183 -29.27 261.897 -28.957 261.69 -28.57 C 261.477 -28.177 261.37 -27.747 261.37 -27.28 Z M 273.76 -30.95 L 275.25 -30.95 L 275.41 -28.79 L 275.32 -29.08 C 275.513 -29.533 275.793 -29.92 276.16 -30.24 C 276.527 -30.56 276.91 -30.807 277.31 -30.98 C 277.71 -31.153 278.06 -31.24 278.36 -31.24 L 278.27 -29.58 C 277.71 -29.62 277.217 -29.513 276.79 -29.26 C 276.363 -29.007 276.027 -28.67 275.78 -28.25 C 275.533 -27.83 275.41 -27.38 275.41 -26.9 L 275.41 -23.5 L 273.76 -23.5 L 273.76 -30.95 Z M 294.24 -23.5 L 292.53 -23.5 L 298.22 -37.05 L 298.33 -37.05 L 304 -23.5 L 302 -23.5 L 297.75 -34.32 L 298.99 -35.13 L 294.24 -23.5 Z M 295.36 -26.92 L 295.86 -28.43 L 300.7 -28.43 L 301.28 -26.92 L 295.36 -26.92 Z M 309.63 -23.5 L 309.63 -37.43 L 311.3 -37.43 L 311.3 -23.5 L 309.63 -23.5 Z M 317.8 -23.5 L 317.8 -37.43 L 319.48 -37.43 L 319.48 -23.5 L 317.8 -23.5 Z M 325.65 -36.62 L 327.16 -36.62 C 327.147 -35.867 327.137 -35.113 327.13 -34.36 C 327.117 -33.613 327.103 -32.857 327.09 -32.09 L 325.65 -32.09 L 325.65 -36.62 Z M 328.08 -36.62 L 329.59 -36.62 C 329.577 -35.867 329.567 -35.113 329.56 -34.36 C 329.547 -33.613 329.533 -32.857 329.52 -32.09 L 328.08 -32.09 L 328.08 -36.62 Z"/>
    </g>
  </svg>
  <svg y="350.69068908691406" viewBox="4.210000038146973 18.90999984741211 338.1800231933594 45.689998626708984" x="118.41000366210938" height="45.689998626708984" width="338.1800231933594" xmlns="http://www.w3.org/2000/svg" style="overflow: visible;" transform="matrix(1, 0, 0, 1, 49.52417755126953, 237.5415802001953)">
    <g fill="#000" style="">
      <path d="M -14.09 12.36 L -30.25 12.36 L -30.25 23.04 L -15.92 23.04 L -15.92 29.81 L -30.25 29.81 L -30.25 41.1 L -14.09 41.1 L -14.09 48.05 L -38.79 48.05 L -38.79 5.41 L -14.09 5.41 L -14.09 12.36 Z M 12.39 13.77 C 16.417 13.77 19.67 15.04 22.15 17.58 C 24.63 20.12 25.87 23.667 25.87 28.22 L 25.87 48.05 L 17.33 48.05 L 17.33 29.38 C 17.33 26.7 16.66 24.637 15.32 23.19 C 13.973 21.75 12.143 21.03 9.83 21.03 C 7.47 21.03 5.607 21.75 4.24 23.19 C 2.88 24.637 2.2 26.7 2.2 29.38 L 2.2 48.05 L -6.34 48.05 L -6.34 14.26 L 2.2 14.26 L 2.2 18.46 C 3.34 17 4.793 15.853 6.56 15.02 C 8.333 14.187 10.277 13.77 12.39 13.77 Z M 31.79 31.15 C 31.79 27.657 32.5 24.597 33.92 21.97 C 35.347 19.35 37.32 17.317 39.84 15.87 C 42.36 14.43 45.247 13.71 48.5 13.71 C 52.687 13.71 56.153 14.757 58.9 16.85 C 61.647 18.943 63.487 21.88 64.42 25.66 L 55.21 25.66 C 54.723 24.2 53.9 23.053 52.74 22.22 C 51.58 21.387 50.147 20.97 48.44 20.97 C 46 20.97 44.067 21.853 42.64 23.62 C 41.22 25.387 40.51 27.897 40.51 31.15 C 40.51 34.363 41.22 36.857 42.64 38.63 C 44.067 40.397 46 41.28 48.44 41.28 C 51.893 41.28 54.15 39.733 55.21 36.64 L 64.42 36.64 C 63.487 40.3 61.637 43.21 58.87 45.37 C 56.103 47.523 52.647 48.6 48.5 48.6 C 45.247 48.6 42.36 47.877 39.84 46.43 C 37.32 44.99 35.347 42.957 33.92 40.33 C 32.5 37.71 31.79 34.65 31.79 31.15 Z M 68.51 31.03 C 68.51 27.617 69.19 24.587 70.55 21.94 C 71.91 19.3 73.76 17.267 76.1 15.84 C 78.44 14.42 81.053 13.71 83.94 13.71 C 86.46 13.71 88.667 14.217 90.56 15.23 C 92.453 16.25 93.967 17.533 95.1 19.08 L 95.1 14.26 L 103.71 14.26 L 103.71 48.05 L 95.1 48.05 L 95.1 43.11 C 94.007 44.697 92.493 46.007 90.56 47.04 C 88.627 48.08 86.4 48.6 83.88 48.6 C 81.033 48.6 78.44 47.867 76.1 46.4 C 73.76 44.94 71.91 42.877 70.55 40.21 C 69.19 37.55 68.51 34.49 68.51 31.03 Z M 95.1 31.15 C 95.1 29.077 94.693 27.3 93.88 25.82 C 93.067 24.333 91.97 23.193 90.59 22.4 C 89.21 21.607 87.727 21.21 86.14 21.21 C 84.553 21.21 83.09 21.597 81.75 22.37 C 80.403 23.143 79.313 24.27 78.48 25.75 C 77.647 27.237 77.23 28.997 77.23 31.03 C 77.23 33.063 77.647 34.843 78.48 36.37 C 79.313 37.897 80.413 39.067 81.78 39.88 C 83.14 40.693 84.593 41.1 86.14 41.1 C 87.727 41.1 89.21 40.703 90.59 39.91 C 91.97 39.117 93.067 37.977 93.88 36.49 C 94.693 35.003 95.1 33.223 95.1 31.15 Z M 130.79 13.77 C 134.817 13.77 138.07 15.04 140.55 17.58 C 143.03 20.12 144.27 23.667 144.27 28.22 L 144.27 48.05 L 135.73 48.05 L 135.73 29.38 C 135.73 26.7 135.06 24.637 133.72 23.19 C 132.373 21.75 130.543 21.03 128.23 21.03 C 125.87 21.03 124.01 21.75 122.65 23.19 C 121.283 24.637 120.6 26.7 120.6 29.38 L 120.6 48.05 L 112.06 48.05 L 112.06 14.26 L 120.6 14.26 L 120.6 18.46 C 121.74 17 123.193 15.853 124.96 15.02 C 126.733 14.187 128.677 13.77 130.79 13.77 Z M 150.19 31.03 C 150.19 27.617 150.87 24.587 152.23 21.94 C 153.59 19.3 155.45 17.267 157.81 15.84 C 160.17 14.42 162.793 13.71 165.68 13.71 C 167.873 13.71 169.967 14.187 171.96 15.14 C 173.953 16.093 175.54 17.363 176.72 18.95 L 176.72 2.91 L 185.38 2.91 L 185.38 48.05 L 176.72 48.05 L 176.72 43.05 C 175.667 44.717 174.183 46.057 172.27 47.07 C 170.357 48.09 168.14 48.6 165.62 48.6 C 162.773 48.6 160.17 47.867 157.81 46.4 C 155.45 44.94 153.59 42.877 152.23 40.21 C 150.87 37.55 150.19 34.49 150.19 31.03 Z M 176.78 31.15 C 176.78 29.077 176.373 27.3 175.56 25.82 C 174.747 24.333 173.65 23.193 172.27 22.4 C 170.883 21.607 169.4 21.21 167.82 21.21 C 166.233 21.21 164.767 21.597 163.42 22.37 C 162.08 23.143 160.993 24.27 160.16 25.75 C 159.327 27.237 158.91 28.997 158.91 31.03 C 158.91 33.063 159.327 34.843 160.16 36.37 C 160.993 37.897 162.09 39.067 163.45 39.88 C 164.817 40.693 166.273 41.1 167.82 41.1 C 169.4 41.1 170.883 40.703 172.27 39.91 C 173.65 39.117 174.747 37.977 175.56 36.49 C 176.373 35.003 176.78 33.223 176.78 31.15 Z M 208.75 48.6 C 205.497 48.6 202.567 47.877 199.96 46.43 C 197.36 44.99 195.317 42.947 193.83 40.3 C 192.35 37.66 191.61 34.61 191.61 31.15 C 191.61 27.697 192.37 24.647 193.89 22 C 195.417 19.36 197.503 17.317 200.15 15.87 C 202.79 14.43 205.737 13.71 208.99 13.71 C 212.243 13.71 215.193 14.43 217.84 15.87 C 220.48 17.317 222.563 19.36 224.09 22 C 225.617 24.647 226.38 27.697 226.38 31.15 C 226.38 34.61 225.597 37.66 224.03 40.3 C 222.463 42.947 220.347 44.99 217.68 46.43 C 215.02 47.877 212.043 48.6 208.75 48.6 Z M 208.75 41.16 C 210.29 41.16 211.743 40.783 213.11 40.03 C 214.47 39.277 215.557 38.147 216.37 36.64 C 217.183 35.14 217.59 33.31 217.59 31.15 C 217.59 27.937 216.747 25.467 215.06 23.74 C 213.373 22.013 211.31 21.15 208.87 21.15 C 206.43 21.15 204.387 22.013 202.74 23.74 C 201.093 25.467 200.27 27.937 200.27 31.15 C 200.27 34.363 201.073 36.833 202.68 38.56 C 204.287 40.293 206.31 41.16 208.75 41.16 Z M 276.09 48.05 L 273.28 39.94 L 256.33 39.94 L 253.52 48.05 L 244.55 48.05 L 259.86 5.41 L 269.81 5.41 L 285.12 48.05 L 276.09 48.05 Z M 258.64 33.1 L 270.97 33.1 L 264.81 15.29 L 258.64 33.1 Z M 290.85 5.47 L 299.39 5.47 L 299.39 48.05 L 290.85 48.05 L 290.85 5.47 Z" style="fill: none; fill-rule: nonzero; stroke: rgb(136, 135, 135);"/>
    </g>
  </svg>
</svg>